# xmcd CD database file
# Generated: Fri May 31 22:26:17 2002 by KSCD
# 
# Track frame offsets:
#       150
#       9505
#       20727
#       30582
#       48787
#       59577
#       71147
#       84517
#       95247
#       106782
#       118510
#       130165
#       141602
#       155042
#       166725
#       182382
#       196472
#       209600
#       220552
#       234182
#       245275
#       256422
#       267252
#       280412
#       293902
#       303032
#       312915
#       321427
#
# Disc length: 4430 seconds
#
# Revision: 1
# Processed by: cddbd v1.4PL0 Copyright (c) Steve Scherf et al.
# Submitted via: Kscd 1.3.2
#
DISCID=98114c1c
DTITLE=Bill Clifton - Around The World To Poor Valley 1
DYEAR=1900
DGENRE=
TTITLE0=Burglar Man
TTITLE1=Flower Blooming In The Wildwood
TTITLE2=Bury Me Beneath The Willow
TTITLE3=Down Where The River Bends
TTITLE4=Wake Up Susan
TTITLE5=Leaning On The Everlasting Arms
TTITLE6=Railroading On The Great Divide
TTITLE7=Take Back The Heart
TTITLE8=Gathering Flowers From The Hillside
TTITLE9=All The Good Times Are Past And Gone
TTITLE10=Pal Of Yesterday
TTITLE11=Little White Washed Chimney
TTITLE12=Lonely Heart Blues
TTITLE13=Take Back The Heart
TTITLE14=When You Kneel At Mother's Grave
TTITLE15=All The Good Times Are Past And Gone
TTITLE16=Gathering Flowers From The Hillside
TTITLE17=Little White Whashed Chimney
TTITLE18=Railroading On The Great Divide
TTITLE19=Take Back The Heart
TTITLE20=Little White Washed Chimney
TTITLE21=Pal Of Yesterday
TTITLE22=Lonely Heart Blues
TTITLE23=Mary Dear
TTITLE24=Dixie Ramble
TTITLE25=Livin' The Right Life
TTITLE26=Cedar Grove
TTITLE27=Blue Ridge Mountain Blues
EXTD=null
EXTT0=null
EXTT1=null
EXTT2=null
EXTT3=null
EXTT4=null
EXTT5=null
EXTT6=null
EXTT7=null
EXTT8=null
EXTT9=null
EXTT10=null
EXTT11=null
EXTT12=null
EXTT13=null
EXTT14=null
EXTT15=null
EXTT16=null
EXTT17=null
EXTT18=null
EXTT19=null
EXTT20=null
EXTT21=null
EXTT22=null
EXTT23=null
EXTT24=null
EXTT25=null
EXTT26=null
EXTT27=null
PLAYORDER=
